#!OML:ASF F:\VICON\USERDATA\INSTALL\rory3\rory3.ASF
:FULLY-SPECIFIED
:DEGREES
2672
root 0.402996 17.3389 -0.966848 17.7273 1.29003 0.141548
lowerback 11.1744 -0.976402 -1.41135
upperback 6.10132 -1.36689 4.35469
thorax 0.258639 -0.788647 5.49007
lowerneck 10.6254 -11.6264 -17.6643
upperneck 10.01 -18.9272 23.2608
head 5.1956 -9.75325 9.67531
rclavicle -9.14409e-015 1.19271e-014
rhumerus -18.4731 25.7502 -56.3016
rradius 143.755
rwrist -48.1515
rhand 37.8887 17.999
rfingers 7.12502
rthumb 60.6231 4.88993
lclavicle -9.14409e-015 1.19271e-014
lhumerus -20.1079 -29.7068 62.9118
lradius 141.164
lwrist 61.2445
lhand 38.1831 34.3112
lfingers 7.12502
lthumb 60.8727 47.1416
rfemur -27.035 6.98377 14.5496
rtibia 23.269
rfoot -14.0095 -10.987
rtoes -23.5457
lfemur -29.8469 -10.1191 -16.6151
ltibia 26.9602
lfoot -13.5476 7.72804
ltoes -17.1841
2673
root 0.399711 17.3476 -0.966031 17.7244 1.35955 0.151548
lowerback 11.031 -0.947892 -1.35022
upperback 6.04364 -1.32378 4.31246
thorax 0.268096 -0.763886 5.4023
lowerneck 10.3891 -11.6503 -17.6407
upperneck 10.0879 -18.9552 23.3196
head 5.26907 -9.74879 9.67091
rclavicle -3.18055e-015 1.43125e-014
rhumerus -17.4083 26.4927 -53.7415
rradius 144.037
rwrist -48.0407
rhand 37.4905 17.7005
rfingers 7.12502
rthumb 60.2844 4.22224
lclavicle -3.18055e-015 1.43125e-014
lhumerus -18.3356 -30.6184 59.4467
lradius 141.305
lwrist 61.3243
lhand 38.4767 34.1691
lfingers 7.12502
lthumb 61.1208 46.7164
rfemur -26.8841 7.06635 14.54
rtibia 23.0162
rfoot -13.872 -11.1109
rtoes -23.6461
lfemur -29.7154 -10.3619 -16.5318
ltibia 26.707
lfoot -13.3798 7.70809
ltoes -16.9925
2674
root 0.396283 17.3575 -0.963563 17.6742 1.47634 0.110183
lowerback 10.9289 -0.951115 -1.25407
upperback 5.97816 -1.31863 4.27345
thorax 0.250285 -0.756764 5.3032
lowerneck 10.1435 -11.6389 -17.5627
upperneck 10.2203 -18.9268 23.2841
head 5.3325 -9.71342 9.63132
rclavicle 1.47101e-014 -5.64548e-014
rhumerus -16.3316 27.0611 -51.1775
rradius 144.304
rwrist -47.8694
rhand 36.9095 17.5975
rfingers 7.12502
rthumb 59.7877 3.5963
lclavicle 1.47101e-014 -5.64548e-014
lhumerus -16.5876 -31.5632 56.0151
lradius 141.436
lwrist 61.3395
lhand 37.8856 33.019
lfingers 7.12502
lthumb 60.6205 46.131
rfemur -26.6595 7.22087 14.5824
rtibia 22.7499
rfoot -13.7106 -11.309
rtoes -23.8416
lfemur -29.5623 -10.5684 -16.4188
ltibia 26.4996
lfoot -13.2586 7.74596
ltoes -16.7734
2675
root 0.392807 17.3646 -0.962094 17.6958 1.56563 0.204023
lowerback 10.7689 -0.991347 -1.37051
upperback 5.87068 -1.38106 4.25675
thorax 0.233818 -0.788306 5.35523
lowerneck 9.9005 -11.5521 -17.5218
upperneck 10.3371 -18.7725 23.0636
head 5.34712 -9.62006 9.54712
rclavicle 2.50469e-014 -2.14687e-014
rhumerus -14.9802 27.6654 -48.4215
rradius 144.458
rwrist -47.7591
rhand 36.214 17.6312
rfingers 7.12502
rthumb 59.1896 3.02746
lclavicle 2.50469e-014 -2.14687e-014
lhumerus -14.9218 -32.078 52.8122
lradius 141.523
lwrist 61.5469
lhand 37.684 32.3102
lfingers 7.12502
lthumb 60.4491 45.6102
rfemur -26.5027 7.3606 14.4568
rtibia 22.4656
rfoot -13.5412 -11.5179
rtoes -23.691
lfemur -29.492 -10.7877 -16.4434
ltibia 26.3074
lfoot -13.1878 7.83857
ltoes -16.5373
2676
root 0.389473 17.3707 -0.962298 17.7396 1.6575 0.156345
lowerback 10.6322 -1.0885 -1.44029
upperback 5.69169 -1.51112 4.348
thorax 0.139735 -0.851874 5.50323
lowerneck 9.78006 -11.3451 -17.7465
upperneck 10.4462 -18.4816 22.7836
head 5.32889 -9.47922 9.51023
rclavicle 1.35174e-014 -3.10104e-014
rhumerus -13.1856 28.4519 -45.3961
rradius 144.476
rwrist -47.8769
rhand 36.2201 17.8095
rfingers 7.12502
rthumb 59.1949 3.21099
lclavicle 1.35174e-014 -3.10104e-014
lhumerus -13.6014 -32.3039 49.9839
lradius 141.591
lwrist 61.8751
lhand 37.8067 32.0808
lfingers 7.12502
lthumb 60.5535 45.2666
rfemur -26.3777 7.51887 14.489
rtibia 22.1712
rfoot -13.3186 -11.7086
rtoes -23.4389
lfemur -29.4635 -10.956 -16.3068
ltibia 26.1321
lfoot -13.0876 7.952
ltoes -16.8178
2677
root 0.385189 17.3784 -0.963062 17.7656 1.71438 0.0151897
lowerback 10.5496 -1.19846 -1.45775
upperback 5.46303 -1.65139 4.45016
thorax -0.0351289 -0.917071 5.63635
lowerneck 9.79508 -11.0466 -18.1153
upperneck 10.6083 -18.1127 22.5948
head 5.30914 -9.31329 9.54968
rclavicle -1.63003e-014 3.65764e-014
rhumerus -11.2214 29.1408 -42.3415
rradius 144.459
rwrist -48.3115
rhand 36.9904 18.1439
rfingers 7.12502
rthumb 59.857 4.21438
lclavicle -1.63003e-014 3.65764e-014
lhumerus -12.8138 -32.7372 47.4543
lradius 141.669
lwrist 62.1675
lhand 37.6811 31.371
lfingers 7.12502
lthumb 60.4467 44.6737
rfemur -26.2828 7.68856 14.6238
rtibia 21.9325
rfoot -13.1248 -11.8331
rtoes -23.3445
lfemur -29.4244 -11.0866 -16.0646
ltibia 25.9531
lfoot -13.0153 7.99476
ltoes -16.3057
2678
root 0.381534 17.3862 -0.964477 17.8109 1.75954 -0.0469773
lowerback 10.4157 -1.25582 -1.42658
upperback 5.3111 -1.72181 4.43171
thorax -0.115212 -0.947292 5.60375
lowerneck 9.72214 -10.8505 -18.2423
upperneck 10.6972 -17.843 22.4344
head 5.28374 -9.1828 9.54066
rclavicle -3.06128e-014 2.06736e-014
rhumerus -9.37726 29.4292 -39.5229
rradius 144.489
rwrist -48.9171
rhand 37.4956 18.1708
rfingers 7.12502
rthumb 60.2887 4.69718
lclavicle -3.06128e-014 2.06736e-014
lhumerus -11.9133 -33.2387 45.0017
lradius 141.688
lwrist 62.6602
lhand 37.8525 31.1985
lfingers 7.12502
lthumb 60.5924 44.3415
rfemur -26.227 7.75484 14.6874
rtibia 21.7063
rfoot -12.9902 -11.8985
rtoes -23.3275
lfemur -29.4204 -11.2303 -15.9117
ltibia 25.8112
lfoot -12.9508 8.10643
ltoes -16.5279
2679
root 0.376554 17.3919 -0.966786 17.8848 1.7777 0.00741816
lowerback 10.2502 -1.26226 -1.42682
upperback 5.23112 -1.73149 4.29935
thorax -0.112703 -0.948753 5.46007
lowerneck 9.5464 -10.7897 -18.1542
upperneck 10.6377 -17.6981 22.2256
head 5.23473 -9.1023 9.45479
rclavicle 7.15625e-015 3.18055e-015
rhumerus -7.6094 29.4719 -36.915
rradius 144.527
rwrist -49.4739
rhand 37.0888 17.9023
rfingers 7.12502
rthumb 59.9413 4.06051
lclavicle 7.15625e-015 3.18055e-015
lhumerus -10.8747 -33.7323 42.7495
lradius 141.69
lwrist 63.1857
lhand 37.7203 31.3859
lfingers 7.12502
lthumb 60.48 44.6522
rfemur -26.1949 7.82987 14.6142
rtibia 21.4787
rfoot -12.8213 -11.9694
rtoes -23.3182
lfemur -29.4507 -11.3427 -15.885
ltibia 25.695
lfoot -12.8924 8.14067
ltoes -16.6937
2680
root 0.373157 17.3965 -0.96971 17.9569 1.7778 -0.0514585
lowerback 10.0902 -1.23405 -1.20363
upperback 5.21039 -1.67793 4.12199
thorax -0.0669652 -0.915331 5.1346
lowerneck 9.02376 -10.8208 -18.0533
upperneck 10.7982 -17.6669 21.9856
head 5.33346 -9.05145 9.31908
rclavicle 3.4191e-014 -5.56597e-015
rhumerus -5.89336 29.2717 -34.4904
rradius 144.449
rwrist -50.1229
rhand 36.7689 17.8083
rfingers 7.12502
rthumb 59.6671 3.68319
lclavicle 3.4191e-014 -5.56597e-015
lhumerus -9.98479 -34.4431 40.8967
lradius 141.728
lwrist 63.2448
lhand 36.7634 30.6162
lfingers 7.12502
lthumb 59.6624 44.7461
rfemur -26.1874 7.83653 14.6883
rtibia 21.2871
rfoot -12.6816 -11.9565
rtoes -23.3067
lfemur -29.5002 -11.4459 -15.7348
ltibia 25.623
lfoot -12.8875 8.24532
ltoes -16.3362
2681
root 0.369772 17.401 -0.972459 18.0198 1.72233 -0.226029
lowerback 9.93802 -1.20386 -0.880642
upperback 5.20603 -1.61431 3.94593
thorax -0.0114634 -0.87537 4.75383
lowerneck 8.29832 -10.81 -18.064
upperneck 11.2635 -17.6063 21.7316
head 5.56286 -8.97306 9.18957
rclavicle -1.03368e-014 -3.97569e-015
rhumerus -4.48408 29.1345 -32.4696
rradius 144.41
rwrist -50.5274
rhand 36.6089 18.0386
rfingers 7.12502
rthumb 59.5297 3.77386
lclavicle -1.03368e-014 -3.97569e-015
lhumerus -9.38652 -35.0761 39.506
lradius 141.791
lwrist 63.3198
lhand 35.7734 29.8644
lfingers 7.12502
lthumb 58.8089 44.8371
rfemur -26.2178 7.91967 14.8621
rtibia 21.1317
rfoot -12.5876 -11.915
rtoes -23.17
lfemur -29.5574 -11.423 -15.5034
ltibia 25.5998
lfoot -12.8809 8.38066
ltoes -16.598
